<svg preserveAspectRatio="none" width="100%" height="100%" overflow="visible" style="display: block;" viewBox="0 0 99.8667 130.23" fill="none" xmlns="http://www.w3.org/2000/svg">
<path id="Vector 78" d="M11.014 1.00007C10.0917 10.2442 7.29675 27.9848 6.59104 40.4291C6.11644 48.7981 4.96303 55.6962 3.5656 61.3034C2.14549 67.0017 1.93057 72.7031 1.35065 81.7691C0.070107 101.788 2.62927 109.966 3.66688 115.668C5.83436 127.578 27.993 124.898 36.5873 127.109C45.7468 129.466 62.8383 130.264 80.8794 127.382C100.633 124.226 96.4679 99.8276 97.8863 88.3755C98.3249 84.8343 99.0532 73.0735 98.8226 56.7757C98.5421 36.952 95.8111 12.8854 91.9786 11.6067C84.4256 9.08676 78.1194 9.62233 70.5523 6.9497C63.8999 4.60018 58.094 4.49368 52.1478 3.33381C43.3998 2.63509 33.2194 1.69881 23.9683 1.11886C21.984 1.00007 19.6781 1.00007 17.3025 1.00007" stroke="var(--stroke-0, #4C4947)" stroke-width="2" stroke-linecap="round"/>
</svg>
