<svg preserveAspectRatio="none" width="100%" height="100%" overflow="visible" style="display: block;" viewBox="0 0 141.673 199.628" fill="none" xmlns="http://www.w3.org/2000/svg">
<path id="Vector 76" d="M28.1788 1.00018C24.7201 19.6771 21.2615 38.354 17.1739 62.963C13.0864 87.5721 8.47484 117.547 4.71572 138.062C0.956593 158.576 -1.81035 168.722 5.9874 174.755C27.607 191.483 54.4648 184.758 63.8522 186.267C89.2888 190.356 103.753 192.66 113.636 195.469C116.929 196.405 119.467 198.501 121.906 198.624C124.96 198.777 127.153 194.1 129.938 187.154C135.112 174.248 136.705 157.591 138.333 129.345C139.038 108.708 139.5 75.2745 139.852 54.8229C140.205 34.3712 140.436 27.915 140.673 21.2632" stroke="var(--stroke-0, #4C4947)" stroke-width="2" stroke-linecap="round"/>
</svg>
